HIERARCHY
ROOT Hips
{
	OFFSET 0.000000 0.000000 0.000000
	CHANNELS 6 Xposition Yposition Zposition Zrotation Yrotation Xrotation 
	JOINT LowerBack
	{
		OFFSET 0.000000 0.000000 0.000000
		CHANNELS 3 Zrotation Yrotation Xrotation
		JOINT Spine
		{
			OFFSET 0.028270 2.035590 -0.193380
			CHANNELS 3 Zrotation Yrotation Xrotation
			JOINT Spine1
			{
				OFFSET 0.056720 2.048850 -0.042750
				CHANNELS 3 Zrotation Yrotation Xrotation
				JOINT Neck
				{
					OFFSET 0.000000 0.000000 0.000000
					CHANNELS 3 Zrotation Yrotation Xrotation
					JOINT Neck1
					{
						OFFSET -0.054170 1.746240 0.172020
						CHANNELS 3 Zrotation Yrotation Xrotation
						JOINT Head
						{
							OFFSET 0.104070 1.761360 -0.123970
							CHANNELS 3 Zrotation Yrotation Xrotation
							End Site
							{
								OFFSET 0.000000 0.000000 0.000000
							}
						}
					}
				}
				JOINT LeftShoulder
				{
					OFFSET 0.000000 0.000000 0.000000
					CHANNELS 3 Zrotation Yrotation Xrotation
					JOINT LeftArm
					{
						OFFSET 3.362410 1.200890 -0.311210
						CHANNELS 3 Zrotation Yrotation Xrotation
						JOINT LeftForeArm
						{
							OFFSET 4.983000 -0.000000 -0.000000
							CHANNELS 3 Zrotation Yrotation Xrotation
							JOINT LeftHand
							{
								OFFSET 3.483560 -0.000000 -0.000000
								CHANNELS 3 Zrotation Yrotation Xrotation
								JOINT LeftFingerBase
								{
									OFFSET 0.000000 0.000000 0.000000
									CHANNELS 3 Zrotation Yrotation Xrotation
									JOINT LeftHandIndex1
									{
										OFFSET 0.715260 -0.000000 -0.000000
										CHANNELS 3 Zrotation Yrotation Xrotation
										End Site
										{
											OFFSET 0.000000 0.000000 0.000000
										}
									}
								}
								JOINT LThumb
								{
									OFFSET 0.000000 0.000000 0.000000
									CHANNELS 3 Zrotation Yrotation Xrotation
									End Site
									{
										OFFSET 0.000000 0.000000 0.000000
									}
								}
							}
						}
					}
				}
				JOINT RightShoulder
				{
					OFFSET 0.000000 0.000000 0.000000
					CHANNELS 3 Zrotation Yrotation Xrotation
					JOINT RightArm
					{
						OFFSET -3.136600 1.374050 -0.404650
						CHANNELS 3 Zrotation Yrotation Xrotation
						JOINT RightForeArm
						{
							OFFSET -5.241900 -0.000000 -0.000000
							CHANNELS 3 Zrotation Yrotation Xrotation
							JOINT RightHand
							{
								OFFSET -3.444170 -0.000000 -0.000000
								CHANNELS 3 Zrotation Yrotation Xrotation
								JOINT RightFingerBase
								{
									OFFSET 0.000000 0.000000 0.000000
									CHANNELS 3 Zrotation Yrotation Xrotation
									JOINT RightHandIndex1
									{
										OFFSET -0.622530 -0.000000 -0.000000
										CHANNELS 3 Zrotation Yrotation Xrotation
										End Site
										{
											OFFSET 0.000000 0.000000 0.000000
										}
									}
								}
								JOINT RThumb
								{
									OFFSET 0.000000 0.000000 0.000000
									CHANNELS 3 Zrotation Yrotation Xrotation
									End Site
									{
										OFFSET 0.000000 0.000000 0.000000
									}
								}
							}
						}
					}
				}
			}
		}
	}
}
}
MOTION
Frames: 12
Frame Time: 0.008333
-11.589720 15.613548 -0.288814 -36.352511 87.850129 -7.764731 5.564403 -3.207997 9.780117 0.490482 -3.173078 -0.638293 -5.716696 -3.076437 0.726770 9.406072 -15.900095 -10.999167 -2.697505 -0.131039 -1.353526 0.000000 0.000000 0.000000 9.329366 11.574565 1.062309 -52.573109 -4.579359 -5.011614 -178.737346 -72.169446 -179.986874 -1.674065 2.272297 -0.026085 -0.016349 0.429705 -0.000000 0.000000 0.000000 0.000000 0.000000 0.000000 0.000000 11.269231 -11.749126 1.347494 72.404214 -16.197863 3.993293 0.450467 75.172321 -0.036828 -11.626571 2.226916 -0.252612 0.176344 -0.227568 -0.000000 0.000000 0.000000 0.000000 0.000000 0.000000 0.000000 
-11.386158 15.582843 -0.264160 -32.048966 88.139788 -3.721565 5.791715 -3.244905 9.847979 0.547770 -3.211861 -0.635695 -5.664987 -3.116668 0.695100 9.399886 -15.854239 -11.093859 -2.702193 -0.130228 -1.380133 0.000000 0.000000 0.000000 9.223057 11.646389 1.133639 -52.809887 -3.621370 -4.674629 -178.722817 -72.111065 -179.984292 -1.991372 2.106723 -0.028407 -0.009038 0.427828 -0.000000 0.000000 0.000000 0.000000 0.000000 0.000000 0.000000 11.288762 -11.624309 1.353065 72.196395 -16.100996 3.803351 0.456747 75.311947 -0.036528 -11.528251 2.249890 -0.252906 0.176863 -0.228497 -0.000000 0.000000 0.000000 0.000000 0.000000 0.000000 0.000000 
-11.183533 15.553108 -0.241586 -29.323501 88.386154 -1.216932 6.083398 -3.275897 9.901008 0.617332 -3.243995 -0.639579 -5.623547 -3.150945 0.651678 9.412127 -15.756454 -11.171596 -2.717904 -0.130563 -1.402555 0.000000 0.000000 0.000000 9.086713 11.694570 1.209156 -53.122794 -2.599720 -4.315084 -178.710947 -72.087183 -179.981822 -2.303516 1.934609 -0.029726 -0.001872 0.425512 -0.000000 0.000000 0.000000 0.000000 0.000000 0.000000 0.000000 11.356609 -11.444290 1.359853 71.926159 -15.904469 3.627886 0.464542 75.418335 -0.036346 -11.450566 2.252893 -0.251601 0.177749 -0.229394 -0.000000 0.000000 0.000000 0.000000 0.000000 0.000000 0.000000 
-10.982197 15.525134 -0.220992 -28.913682 88.614103 -0.981903 6.427063 -3.305155 9.934593 0.697978 -3.272573 -0.650087 -5.591532 -3.182233 0.598703 9.446126 -15.608131 -11.231067 -2.744195 -0.132024 -1.420373 0.000000 0.000000 0.000000 8.927438 11.721310 1.286792 -53.521841 -1.527808 -3.931341 -178.703405 -72.110866 -179.979541 -2.603223 1.761782 -0.029943 0.005019 0.422679 -0.000000 0.000000 0.000000 0.000000 0.000000 0.000000 0.000000 11.476299 -11.214445 1.366919 71.594526 -15.601700 3.465923 0.473790 75.485762 -0.036318 -11.401756 2.229511 -0.248295 0.179068 -0.230171 -0.000000 0.000000 0.000000 0.000000 0.000000 0.000000 0.000000 
-10.782951 15.499747 -0.202382 -31.381290 88.852080 -3.591068 6.800657 -3.337150 9.961364 0.786000 -3.300111 -0.662283 -5.567753 -3.212441 0.542449 9.507835 -15.421213 -11.276347 -2.779719 -0.134393 -1.435126 0.000000 0.000000 0.000000 8.760342 11.750421 1.363168 -54.023749 -0.468636 -3.499852 -178.702957 -72.226503 -179.977461 -2.890457 1.604889 -0.029455 0.011580 0.419084 -0.000000 0.000000 0.000000 0.000000 0.000000 0.000000 0.000000 11.656589 -10.952921 1.371694 71.202672 -15.182890 3.312783 0.483893 75.517715 -0.036491 -11.389545 2.174292 -0.242490 0.180793 -0.230780 -0.000000 0.000000 0.000000 0.000000 0.000000 0.000000 0.000000 
-10.585741 15.477401 -0.185540 -37.302366 89.131100 -9.601115 7.173571 -3.381871 9.955991 0.876573 -3.338199 -0.682682 -5.548413 -3.253437 0.481456 9.591772 -15.193767 -11.300885 -2.822907 -0.137678 -1.444264 0.000000 0.000000 0.000000 8.585696 11.748525 1.437889 -54.624638 0.620402 -3.042463 -178.710253 -72.418534 -179.975659 -3.155034 1.461942 -0.028463 0.017692 0.414733 0.000000 0.000000 0.000000 0.000000 0.000000 0.000000 0.000000 11.883246 -10.663794 1.375417 70.764275 -14.654641 3.167744 0.495050 75.504026 -0.036883 -11.420569 2.086487 -0.234387 0.182988 -0.231168 -0.000000 0.000000 0.000000 0.000000 0.000000 0.000000 0.000000 
-10.390979 15.458480 -0.170217 -46.001239 89.433730 -18.339981 7.482262 -3.428936 9.923626 0.953970 -3.379960 -0.709329 -5.530920 -3.298107 0.419791 9.698682 -14.934807 -11.306799 -2.871128 -0.141591 -1.448396 0.000000 0.000000 0.000000 8.415590 11.728327 1.507558 -55.327737 1.711716 -2.551433 -178.727870 -72.713022 -179.974156 -3.395331 1.342243 -0.027271 0.023384 0.409432 -0.000000 0.000000 0.000000 0.000000 0.000000 0.000000 0.000000 12.153458 -10.356092 1.377664 70.292743 -14.015743 3.027363 0.507009 75.446698 -0.037525 -11.497719 1.966040 -0.223685 0.185664 -0.231392 -0.000000 0.000000 0.000000 0.000000 0.000000 0.000000 0.000000 
-10.198978 15.443227 -0.156058 -55.863242 89.701391 -28.191111 7.692450 -3.452904 9.870681 1.006415 -3.404271 -0.740398 -5.515540 -3.325529 0.359106 9.826711 -14.651474 -11.295100 -2.921431 -0.145849 -1.447683 0.000000 0.000000 0.000000 8.257579 11.700561 1.569075 -56.128466 2.799196 -2.030324 -178.758338 -73.123370 -179.972970 -3.608626 1.250513 -0.026378 0.028778 0.403000 -0.000000 0.000000 0.000000 0.000000 0.000000 0.000000 0.000000 12.457538 -10.028175 1.379904 69.805325 -13.267441 2.890432 0.519900 75.347111 -0.038438 -11.620607 1.815422 -0.210584 0.188908 -0.231578 -0.000000 0.000000 0.000000 0.000000 0.000000 0.000000 0.000000 
-10.010001 15.431780 -0.142722 -65.243664 89.891518 -37.509473 7.826758 -3.437330 9.804081 1.036347 -3.394918 -0.773650 -5.504490 -3.319745 0.300066 9.972538 -14.351181 -11.266980 -2.970960 -0.150199 -1.442385 0.000000 0.000000 0.000000 8.116231 11.672525 1.621069 -57.021354 3.877355 -1.483598 -178.803255 -73.660400 -179.972125 -3.792441 1.189959 -0.025985 0.033956 0.395343 -0.000000 0.000000 0.000000 0.000000 0.000000 0.000000 0.000000 12.782078 -9.679728 1.383411 69.319621 -12.414721 2.755770 0.533653 75.209518 -0.039617 -11.785519 1.639896 -0.195181 0.192736 -0.231867 -0.000000 0.000000 0.000000 0.000000 0.000000 0.000000 0.000000 
-9.824356 15.424118 -0.129545 107.095835 89.994406 134.938747 7.917221 -3.386513 9.727639 1.051684 -3.352873 -0.807408 -5.499174 -3.281737 0.243250 10.133998 -14.037697 -11.223000 -3.017366 -0.154449 -1.432610 0.000000 0.000000 0.000000 7.998156 11.645316 1.664473 -57.995474 4.939399 -0.916735 -178.862664 -74.331877 -179.971634 -3.941977 1.157617 -0.026295 0.038818 0.386599 0.000000 0.000000 0.000000 0.000000 0.000000 0.000000 0.000000 13.115590 -9.314434 1.387620 68.853488 -11.466930 2.621538 0.547663 75.040404 -0.041056 -11.983920 1.446346 -0.177982 0.196979 -0.232372 -0.000000 0.000000 0.000000 0.000000 0.000000 0.000000 0.000000 
-9.642204 15.420224 -0.116748 100.461633 89.929592 128.453418 7.981417 -3.308633 9.642545 1.057955 -3.285094 -0.841023 -5.497992 -3.218416 0.190378 10.301986 -13.720521 -11.165682 -3.058177 -0.158367 -1.419095 0.000000 0.000000 0.000000 7.898258 11.618612 1.700773 -59.037316 5.962821 -0.326388 -178.935372 -75.149300 -179.971484 -4.057793 1.162489 -0.027602 0.043206 0.376668 0.000000 0.000000 0.000000 0.000000 0.000000 0.000000 0.000000 13.440043 -8.945269 1.391595 68.420579 -10.435993 2.484016 0.561141 74.852463 -0.042728 -12.207802 1.245036 -0.159584 0.201448 -0.233231 -0.000000 0.000000 0.000000 0.000000 0.000000 0.000000 0.000000 
-9.463683 15.419945 -0.103890 94.773899 89.891783 122.949552 8.015427 -3.211921 9.549984 1.055578 -3.198588 -0.874261 -5.499819 -3.136687 0.141072 10.471024 -13.400320 -11.095332 -3.091598 -0.161809 -1.401887 0.000000 0.000000 0.000000 7.815518 11.588664 1.732553 -60.124999 6.946477 0.279689 -179.019474 -76.110195 -179.971673 -4.134711 1.199854 -0.029908 0.046899 0.365730 0.000000 0.000000 0.000000 0.000000 0.000000 0.000000 0.000000 13.742061 -8.574926 1.394290 68.037531 -9.335686 2.343588 0.573311 74.654795 -0.044590 -12.444501 1.046125 -0.140786 0.205901 -0.234586 -0.000000 0.000000 0.000000 0.000000 0.000000 0.000000 0.000000 
